<?xml version="1.0" encoding="utf-8"?>
<!-- Generator: Adobe Illustrator 27.7.0, SVG Export Plug-In . SVG Version: 6.00 Build 0)  -->
<svg version="1.1" id="Layer_1" xmlns="http://www.w3.org/2000/svg" xmlns:xlink="http://www.w3.org/1999/xlink" x="0px" y="0px"
	 viewBox="0 0 307.9 45" style="enable-background:new 0 0 307.9 45;" xml:space="preserve">
<style type="text/css">
	.st0{fill:#FF3818;}
	.st1{fill-rule:evenodd;clip-rule:evenodd;fill:#FF3818;}
	.st2{fill:none;}
	.st3{enable-background:new    ;}
</style>
<g id="sponsorlogo">
	<path id="_x3C_Path_x3E_" class="st0" d="M1.4,40.5L5,36.9l-3.6-3.6l2.4-2.4l3.6,3.6l3.6-3.6l2.4,2.4l-3.6,3.6l3.6,3.6L11,42.9
		l-3.6-3.6l-3.6,3.6L1.4,40.5z"/>
	<path id="_x3C_Path_x3E__00000152977838681080560480000010360260676975044237_" class="st0" d="M1.4,11.7L5,8.1L1.4,4.5l2.4-2.4
		l3.6,3.6L11,2.1l2.4,2.4L9.8,8.1l3.6,3.6L11,14.1l-3.6-3.6l-3.6,3.6L1.4,11.7z"/>
	<path id="_x3C_Path_x3E__00000129206933252607057630000007895768096908552577_" class="st0" d="M1.4,26.1L5,22.5l-3.6-3.6l2.4-2.4
		l3.6,3.6l3.6-3.6l2.4,2.4l-3.6,3.6l3.6,3.6L11,28.5l-3.6-3.6l-3.6,3.6L1.4,26.1z"/>
	<g id="_x3C_Group_x3E_">
		<path id="_x3C_Compound_Path_x3E_" class="st0" d="M36.3,17.8c-1.8,1-3.8,1.4-6,1.4c-4.5,0-7.7-3-7.7-7.6C22.6,7,25.8,4,30.3,4
			c2.2,0,4.2,0.5,5.7,1.8l-1.9,1.9c-0.9-0.9-2.3-1.4-3.8-1.4c-3,0-5,2.3-5,5.2c0,3.1,2,5.4,5,5.4c1.3,0,2.5-0.2,3.4-0.8v-3.4h-3
			v-2.3h5.6V17.8z"/>
		<path id="_x3C_Compound_Path_x3E__00000161596440251888270690000013588337736079869332_" class="st1" d="M41.1,14.8
			c0.2,1.5,1.3,2.3,2.7,2.3c1.2,0,2-0.6,2.6-1.3l1.8,1.3c-1.1,1.4-2.6,2-4.2,2c-3,0-5.4-2.1-5.4-5.2S41,8.8,44,8.8
			c2.8,0,4.6,1.9,4.6,5.4v0.7h-7.5V14.8z M46.2,13c0-1.4-1-2.3-2.5-2.3s-2.4,0.9-2.5,2.3H46.2z"/>
		<path id="_x3C_Compound_Path_x3E__00000138546115232946445560000008551210774554340761_" class="st0" d="M50.8,9h2.4v1.5l0,0
			c0.4-0.9,1.4-1.8,3-1.8c1.5,0,2.6,0.6,3.1,1.8c0.7-1.2,1.8-1.8,3.2-1.8c2.6,0,3.6,1.9,3.6,4.2v5.9h-2.5v-5.6
			c0-1.2-0.4-2.3-1.8-2.3c-1.5,0-2.1,1.3-2.1,2.6v5.3h-2.5V13c0-1.2-0.5-2-1.7-2c-1.6,0-2.3,1.2-2.3,2.5v5.4h-2.5L50.8,9L50.8,9z"/>
		<path id="_x3C_Compound_Path_x3E__00000068644604678758858300000000006578992775008695_" class="st1" d="M70.8,14.8
			c0.2,1.5,1.3,2.3,2.7,2.3c1.2,0,2-0.6,2.7-1.3l1.8,1.3c-1.2,1.4-2.6,2-4.2,2c-3,0-5.4-2.1-5.4-5.2s2.4-5.2,5.4-5.2
			c2.8,0,4.6,1.9,4.6,5.4v0.7H70.8z M75.9,13c0-1.4-1-2.3-2.5-2.3S71,11.6,70.8,13H75.9z"/>
		<path id="_x3C_Compound_Path_x3E__00000025420827497773545580000009369315060901969538_" class="st1" d="M82.7,14.8
			c0.2,1.5,1.3,2.3,2.7,2.3c1.2,0,2-0.6,2.7-1.3l1.8,1.3c-1.2,1.4-2.6,2-4.2,2c-3,0-5.4-2.1-5.4-5.2s2.4-5.2,5.4-5.2
			c2.8,0,4.6,1.9,4.6,5.4v0.7H82.7z M87.7,13c0-1.4-1-2.3-2.5-2.3s-2.4,0.9-2.5,2.3H87.7z"/>
		<path id="_x3C_Compound_Path_x3E__00000160879508241201406500000016316859161504481168_" class="st0" d="M92.5,9h2.3v1.6l0,0
			c0.5-1,1.4-1.8,3-1.8c2.6,0,3.6,1.9,3.6,3.9v6.2H99v-5c0-1.1-0.1-2.9-1.8-2.9c-1.6,0-2.3,1.2-2.3,2.5v5.4h-2.5V9H92.5z"/>
		<path id="_x3C_Compound_Path_x3E__00000106121242846757785640000007471039612523291282_" class="st0" d="M103.2,11.1V9h2V6.2h2.5
			V9h2.7v2.1h-2.7v4.3c0,1,0.3,1.6,1.4,1.6c0.4,0,1-0.1,1.3-0.3v2.1c-0.5,0.2-1.4,0.3-2,0.3c-2.6,0-3.2-1.2-3.2-3.5v-4.5H103.2z"/>
		<path id="_x3C_Compound_Path_x3E__00000070799157981319203570000014583090680205462966_" class="st1" d="M114.3,14.8
			c0.2,1.5,1.3,2.3,2.7,2.3c1.2,0,2-0.6,2.7-1.3l1.8,1.3c-1.2,1.4-2.6,2-4.2,2c-3,0-5.4-2.1-5.4-5.2s2.4-5.2,5.4-5.2
			c2.8,0,4.6,1.9,4.6,5.4v0.7H114.3z M119.3,13c0-1.4-1-2.3-2.5-2.3s-2.4,0.9-2.5,2.3H119.3z"/>
	</g>
	<g id="_x3C_Group_x3E__00000096756785418488662000000017886775151796138140_">
		<path id="_x3C_Compound_Path_x3E__00000181077941427154309490000010732868979305420673_" class="st1" d="M28.1,26h2.2l6.3,14.5h-3
			l-1.4-3.3h-6.3l-1.3,3.3h-2.9L28.1,26z M31.4,35l-2.2-5.9L26.8,35H31.4z"/>
		<path id="_x3C_Compound_Path_x3E__00000003825414560315179130000009495629050939941031_" class="st0" d="M37.9,30.7h2.3v1.5l0,0
			c0.4-0.9,1.4-1.8,3-1.8c1.5,0,2.6,0.6,3.1,1.8c0.7-1.2,1.8-1.8,3.2-1.8c2.6,0,3.6,1.9,3.6,4.2v5.9h-2.5v-5.6
			c0-1.2-0.4-2.3-1.8-2.3c-1.5,0-2.1,1.3-2.1,2.5v5.3h-2.5v-5.9c0-1.2-0.5-2-1.7-2c-1.6,0-2.3,1.2-2.3,2.5v5.4h-2.5v-9.7H37.9z"/>
		<path id="_x3C_Compound_Path_x3E__00000160905769412158343580000017981828550335808444_" class="st0" d="M61.2,33.4
			c-0.5-0.7-1.1-1-1.9-1c-0.7,0-1.4,0.3-1.4,1c0,1.8,5.3,0.3,5.3,4.2c0,2.3-2.2,3.2-4.3,3.2c-1.5,0-2.8-0.4-3.9-1.5l1.6-1.5
			c0.6,0.7,1.3,1.2,2.3,1.2c0.7,0,1.7-0.3,1.7-1.1c0-2-5.3-0.4-5.3-4.2c0-2.2,2-3.2,4-3.2c1.3,0,2.7,0.4,3.5,1.5L61.2,33.4z"/>
		<path id="_x3C_Compound_Path_x3E__00000067953744327575494330000003279412543072441236_" class="st0" d="M63.9,32.8v-2.1h2v-2.9
			h2.5v2.9h2.7v2.1h-2.7v4.3c0,1,0.3,1.6,1.4,1.6c0.4,0,1-0.1,1.3-0.3v2.1c-0.5,0.2-1.4,0.3-1.9,0.3c-2.6,0-3.2-1.2-3.2-3.5v-4.5
			C66,32.8,63.9,32.8,63.9,32.8z"/>
		<path id="_x3C_Compound_Path_x3E__00000132081232865730325370000011841629475715197571_" class="st1" d="M75,36.5
			c0.2,1.5,1.3,2.4,2.7,2.4c1.2,0,2-0.6,2.7-1.3l1.8,1.3c-1.2,1.4-2.6,2-4.2,2c-3,0-5.4-2.1-5.4-5.2c0-3.1,2.4-5.2,5.4-5.2
			c2.8,0,4.6,1.9,4.6,5.4v0.7H75V36.5z M80.1,34.6c0-1.4-1-2.3-2.5-2.3s-2.4,0.9-2.6,2.3H80.1z"/>
		<path id="_x3C_Compound_Path_x3E__00000074429919930593342600000007749542551063208105_" class="st0" d="M84.8,30.7h2.5v1.6h0.1
			c0.5-1.1,1.6-1.8,2.9-1.8c0.3,0,0.6,0.1,0.9,0.1V33c-0.4-0.1-0.8-0.2-1.2-0.2c-2.3,0-2.7,2-2.7,2.5v5.3h-2.5
			C84.8,40.6,84.8,30.7,84.8,30.7z"/>
		<path id="_x3C_Compound_Path_x3E__00000039116351599987291280000001186961822979423915_" class="st1" d="M100.3,39L100.3,39
			c-0.8,1.2-2.1,1.7-3.4,1.7c-3.1,0-4.9-2.3-4.9-5.2s2-5.2,4.8-5.2c1.9,0,2.8,0.9,3.4,1.5h0.1V25h2.5v15.5h-2.3V39H100.3z
			 M97.4,38.6c1.8,0,2.9-1.4,2.9-3c0-1.5-1.1-3-2.9-3s-2.9,1.4-2.9,3C94.5,37.1,95.6,38.6,97.4,38.6z"/>
		<path id="_x3C_Compound_Path_x3E__00000142164997175449265670000008420727770104271267_" class="st1" d="M111.7,39.2L111.7,39.2
			c-0.8,1.1-1.9,1.6-3.2,1.6c-1.8,0-3.6-1-3.6-3c0-3.2,3.8-3.4,6.2-3.4h0.6v-0.3c0-1.2-1-1.8-2.3-1.8c-1,0-2,0.4-2.6,1l-1.3-1.3
			c1.1-1.1,2.6-1.6,4.2-1.6c4.2,0,4.2,3,4.2,4.4v5.7h-2.2C111.7,40.5,111.7,39.2,111.7,39.2z M111.5,36.1H111
			c-1.4,0-3.7,0.1-3.7,1.5c0,0.9,0.9,1.3,1.7,1.3c1.7,0,2.5-0.9,2.5-2.3V36.1z"/>
		<path id="_x3C_Compound_Path_x3E__00000115502343616467615180000017238274213336977816_" class="st0" d="M116.4,30.7h2.3v1.5l0,0
			c0.4-0.9,1.4-1.8,3-1.8c1.5,0,2.6,0.6,3.1,1.8c0.7-1.2,1.8-1.8,3.3-1.8c2.6,0,3.6,1.9,3.6,4.2v5.9h-2.5v-5.6
			c0-1.2-0.4-2.3-1.8-2.3c-1.5,0-2.1,1.3-2.1,2.5v5.3h-2.5v-5.9c0-1.2-0.5-2-1.7-2c-1.6,0-2.3,1.2-2.3,2.5v5.4h-2.5L116.4,30.7
			L116.4,30.7z"/>
	</g>
</g>
<rect x="228.7" y="9.9" class="st2" width="181.4" height="37.3"/>
<g class="st3">
	<path d="M230.9,12.1h4V20h8.2v-7.9h4v19.5h-4v-8.3h-8.2v8.3h-4V12.1z"/>
	<path d="M251.4,12.1h11.2v3.3h-7.3v4.7h7v3.3h-7v5h7.5v3.3h-11.5V12.1z"/>
	<path d="M266.6,12.1h7.1c0.9,0,1.8,0.2,2.5,0.5s1.4,0.7,2,1.3c0.5,0.5,1,1.2,1.3,2s0.5,1.6,0.5,2.5c0,1.3-0.3,2.4-0.9,3.4
		c-0.6,1-1.5,1.6-2.6,2l0,0.1l5.5,7.9h-4.6l-4.9-7.1h-1.9v7.1h-4V12.1z M273.2,21.4c0.8,0,1.5-0.3,2-0.8s0.8-1.3,0.8-2.2
		c0-0.9-0.2-1.6-0.7-2.2s-1.2-0.8-2-0.8h-2.7v6.1H273.2z"/>
	<path d="M290.6,12.1h4.5l7.8,19.5h-4.2l-1.6-4.3h-8.7l-1.6,4.3h-4L290.6,12.1z M289.6,24.1h6.3l-3.1-8.2h-0.1L289.6,24.1z"/>
</g>
</svg>
